<svg width="32" height="32" viewBox="0 0 32 32" fill="none" xmlns="http://www.w3.org/2000/svg">
<g clip-path="url(#clip0_7_3)">
<path d="M20.3059 18.5028V13.8153H21.1014V18.5028H20.3059ZM18.3599 16.5568V15.7614H23.0474V16.5568H18.3599ZM26.8977 18.5028V13.8153H27.6932V18.5028H26.8977ZM24.9517 16.5568V15.7614H29.6392V16.5568H24.9517Z" fill="black"/>
<path d="M11.608 25.3636C9.97159 25.3636 8.5625 24.9773 7.38068 24.2045C6.19886 23.4318 5.28977 22.3674 4.65341 21.0114C4.01705 19.6553 3.69886 18.1061 3.69886 16.3636C3.69886 14.5909 4.02462 13.0265 4.67614 11.6705C5.33523 10.3068 6.25189 9.24242 7.42614 8.47727C8.60795 7.70455 9.98674 7.31818 11.5625 7.31818C12.7898 7.31818 13.8958 7.54545 14.8807 8C15.8655 8.45455 16.6723 9.09091 17.3011 9.90909C17.9299 10.7273 18.3201 11.6818 18.4716 12.7727H15.7898C15.5852 11.9773 15.1307 11.2727 14.4261 10.6591C13.7292 10.0379 12.7898 9.72727 11.608 9.72727C10.5625 9.72727 9.64583 10 8.85795 10.5455C8.07765 11.0833 7.4678 11.8447 7.02841 12.8295C6.59659 13.8068 6.38068 14.9545 6.38068 16.2727C6.38068 17.6212 6.5928 18.7955 7.01705 19.7955C7.44886 20.7955 8.05492 21.572 8.83523 22.125C9.62311 22.678 10.5473 22.9545 11.608 22.9545C12.3049 22.9545 12.9375 22.8333 13.5057 22.5909C14.0739 22.3485 14.5549 22 14.9489 21.5455C15.3428 21.0909 15.6231 20.5455 15.7898 19.9091H18.4716C18.3201 20.9394 17.9451 21.8674 17.3466 22.6932C16.7557 23.5114 15.9716 24.1629 14.9943 24.6477C14.0246 25.125 12.8958 25.3636 11.608 25.3636Z" fill="black"/>
</g>
<defs>
<clipPath id="clip0_7_3">
<rect width="32" height="32" fill="white"/>
</clipPath>
</defs>
</svg>
